<svg width="32" height="32" viewBox="0 0 32 32" fill="currentColor"
    xmlns="http://www.w3.org/2000/svg">
    <path
        d="M10.3333 3.33331C10.3333 2.78103 9.88562 2.33331 9.33333 2.33331C8.78105 2.33331 8.33333 2.78103 8.33333 3.33331V5.43899C6.41422 5.59266 5.15436 5.96981 4.22876 6.89541C3.30316 7.82101 2.92602 9.08087 2.77234 11H29.2277C29.074 9.08087 28.6968 7.82101 27.7712 6.89541C26.8456 5.96981 25.5858 5.59266 23.6667 5.43899V3.33331C23.6667 2.78103 23.2189 2.33331 22.6667 2.33331C22.1144 2.33331 21.6667 2.78103 21.6667 3.33331V5.35052C20.7796 5.33331 19.7854 5.33331 18.6667 5.33331H13.3333C12.2146 5.33331 11.2204 5.33331 10.3333 5.35052V3.33331Z"
        fill="currentColor" />
    <path fill-rule="evenodd" clip-rule="evenodd"
        d="M2.66666 16C2.66666 14.8813 2.66666 13.887 2.68387 13H29.3161C29.3333 13.887 29.3333 14.8813 29.3333 16V18.6666C29.3333 23.695 29.3333 26.2091 27.7712 27.7712C26.2091 29.3333 23.695 29.3333 18.6667 29.3333H13.3333C8.30502 29.3333 5.79086 29.3333 4.22876 27.7712C2.66666 26.2091 2.66666 23.695 2.66666 18.6666V16ZM22.6667 18.6666C23.403 18.6666 24 18.0697 24 17.3333C24 16.5969 23.403 16 22.6667 16C21.9303 16 21.3333 16.5969 21.3333 17.3333C21.3333 18.0697 21.9303 18.6666 22.6667 18.6666ZM22.6667 24C23.403 24 24 23.403 24 22.6666C24 21.9303 23.403 21.3333 22.6667 21.3333C21.9303 21.3333 21.3333 21.9303 21.3333 22.6666C21.3333 23.403 21.9303 24 22.6667 24ZM17.3333 17.3333C17.3333 18.0697 16.7364 18.6666 16 18.6666C15.2636 18.6666 14.6667 18.0697 14.6667 17.3333C14.6667 16.5969 15.2636 16 16 16C16.7364 16 17.3333 16.5969 17.3333 17.3333ZM17.3333 22.6666C17.3333 23.403 16.7364 24 16 24C15.2636 24 14.6667 23.403 14.6667 22.6666C14.6667 21.9303 15.2636 21.3333 16 21.3333C16.7364 21.3333 17.3333 21.9303 17.3333 22.6666ZM9.33333 18.6666C10.0697 18.6666 10.6667 18.0697 10.6667 17.3333C10.6667 16.5969 10.0697 16 9.33333 16C8.59695 16 8 16.5969 8 17.3333C8 18.0697 8.59695 18.6666 9.33333 18.6666ZM9.33333 24C10.0697 24 10.6667 23.403 10.6667 22.6666C10.6667 21.9303 10.0697 21.3333 9.33333 21.3333C8.59695 21.3333 8 21.9303 8 22.6666C8 23.403 8.59695 24 9.33333 24Z"
        fill="currentColor" />
</svg>