<svg width="29" height="28" viewBox="0 0 29 28" fill="none" xmlns="http://www.w3.org/2000/svg">
<path fill-rule="evenodd" clip-rule="evenodd" d="M14.5 25.6666C20.9433 25.6666 26.1667 20.4433 26.1667 14C26.1667 7.55666 20.9433 2.33331 14.5 2.33331C8.05669 2.33331 2.83334 7.55666 2.83334 14C2.83334 15.8663 3.27156 17.6302 4.05071 19.1945C4.25777 19.6102 4.32669 20.0854 4.20665 20.534L3.51177 23.1311C3.21012 24.2585 4.24153 25.2899 5.36892 24.9882L7.96596 24.2933C8.4146 24.1733 8.88975 24.2422 9.30546 24.4493C10.8698 25.2284 12.6337 25.6666 14.5 25.6666ZM9.83334 15.4583C9.35009 15.4583 8.95834 15.8501 8.95834 16.3333C8.95834 16.8166 9.35009 17.2083 9.83334 17.2083H16.25C16.7333 17.2083 17.125 16.8166 17.125 16.3333C17.125 15.8501 16.7333 15.4583 16.25 15.4583H9.83334ZM8.95834 12.25C8.95834 11.7667 9.35009 11.375 9.83334 11.375H19.1667C19.6499 11.375 20.0417 11.7667 20.0417 12.25C20.0417 12.7332 19.6499 13.125 19.1667 13.125H9.83334C9.35009 13.125 8.95834 12.7332 8.95834 12.25Z" fill="#582FE6"/>
</svg>
