<svg width="32" height="32" viewBox="0 0 32 32" fill="currentColor"
    xmlns="http://www.w3.org/2000/svg">
    <path
        d="M29.3333 11.3333C29.3333 6.54686 25.4531 2.66666 20.6667 2.66666C17.8895 2.66666 15.4174 3.97639 13.8313 6.0096C20.5961 6.27114 26 11.8378 26 18.6667C26 18.8137 25.9975 18.9602 25.9925 19.1061L26.4355 19.2246C27.724 19.5694 28.9027 18.3906 28.558 17.1022L28.3882 16.4675C28.251 15.9547 28.3334 15.4131 28.554 14.9303C29.0544 13.8346 29.3333 12.6166 29.3333 11.3333Z"
        fill="currentColor" />
    <path fill-rule="evenodd" clip-rule="evenodd"
        d="M24 18.6667C24 24.5577 19.2244 29.3333 13.3333 29.3333C11.686 29.3333 10.1259 28.9599 8.73301 28.2931C8.25428 28.0639 7.71191 27.9834 7.19918 28.1206L5.56446 28.558C4.27602 28.9027 3.09727 27.724 3.44201 26.4355L3.8794 24.8008C4.01659 24.2881 3.93612 23.7457 3.70693 23.267C3.0401 21.8741 2.66666 20.314 2.66666 18.6667C2.66666 12.7756 7.44229 7.99999 13.3333 7.99999C19.2244 7.99999 24 12.7756 24 18.6667ZM8.66666 20C9.40304 20 10 19.403 10 18.6667C10 17.9303 9.40304 17.3333 8.66666 17.3333C7.93028 17.3333 7.33333 17.9303 7.33333 18.6667C7.33333 19.403 7.93028 20 8.66666 20ZM13.3333 20C14.0697 20 14.6667 19.403 14.6667 18.6667C14.6667 17.9303 14.0697 17.3333 13.3333 17.3333C12.597 17.3333 12 17.9303 12 18.6667C12 19.403 12.597 20 13.3333 20ZM18 20C18.7364 20 19.3333 19.403 19.3333 18.6667C19.3333 17.9303 18.7364 17.3333 18 17.3333C17.2636 17.3333 16.6667 17.9303 16.6667 18.6667C16.6667 19.403 17.2636 20 18 20Z"
        fill="currentColor" />
</svg>