<svg width="32" height="32" viewBox="0 0 32 32" fill="currentColor"
    xmlns="http://www.w3.org/2000/svg">
    <path
        d="M10.6667 4.66666C10.6667 3.56209 11.5621 2.66666 12.6667 2.66666H19.3333C20.4379 2.66666 21.3333 3.56209 21.3333 4.66666V5.99999C21.3333 7.10456 20.4379 7.99999 19.3333 7.99999H12.6667C11.5621 7.99999 10.6667 7.10456 10.6667 5.99999V4.66666Z"
        fill="currentColor" />
    <path fill-rule="evenodd" clip-rule="evenodd"
        d="M8.66667 5.38214C6.98946 5.47624 5.93064 5.74351 5.17157 6.50258C4 7.67415 4 9.55977 4 13.331V21.331C4 25.1022 4 26.9879 5.17157 28.1594C6.34315 29.331 8.22876 29.331 12 29.331H20C23.7712 29.331 25.6569 29.331 26.8284 28.1594C28 26.9879 28 25.1022 28 21.331V13.331C28 9.55977 28 7.67415 26.8284 6.50258C26.0694 5.74351 25.0105 5.47624 23.3333 5.38214V5.99999C23.3333 8.20913 21.5425 9.99999 19.3333 9.99999H12.6667C10.4575 9.99999 8.66667 8.20913 8.66667 5.99999V5.38214ZM8.33333 14C8.33333 13.4477 8.78105 13 9.33333 13H22.6667C23.219 13 23.6667 13.4477 23.6667 14C23.6667 14.5523 23.219 15 22.6667 15H9.33333C8.78105 15 8.33333 14.5523 8.33333 14ZM9.66667 18.6667C9.66667 18.1144 10.1144 17.6667 10.6667 17.6667H21.3333C21.8856 17.6667 22.3333 18.1144 22.3333 18.6667C22.3333 19.2189 21.8856 19.6667 21.3333 19.6667H10.6667C10.1144 19.6667 9.66667 19.2189 9.66667 18.6667ZM11 23.3333C11 22.781 11.4477 22.3333 12 22.3333H20C20.5523 22.3333 21 22.781 21 23.3333C21 23.8856 20.5523 24.3333 20 24.3333H12C11.4477 24.3333 11 23.8856 11 23.3333Z"
        fill="currentColor" />
</svg>