<svg width="40" height="40" viewBox="0 0 40 40" fill="none" xmlns="http://www.w3.org/2000/svg">
<rect width="40" height="40" rx="20" fill="#582FE6" fill-opacity="0.2"/>
<path fill-rule="evenodd" clip-rule="evenodd" d="M20 10C15.5817 10 12 14.0026 12 18.5C12 22.9622 14.5533 27.8124 18.5371 29.6744C19.4657 30.1085 20.5343 30.1085 21.4629 29.6744C25.4467 27.8124 28 22.9622 28 18.5C28 14.0026 24.4183 10 20 10ZM20 20C21.1046 20 22 19.1046 22 18C22 16.8954 21.1046 16 20 16C18.8954 16 18 16.8954 18 18C18 19.1046 18.8954 20 20 20Z" fill="#582FE6"/>
</svg>
