<svg width="26" height="26" viewBox="0 0 26 26" fill="none" xmlns="http://www.w3.org/2000/svg">
<path fill-rule="evenodd" clip-rule="evenodd" d="M12.4583 2.97916C7.22314 2.97916 2.97917 7.22313 2.97917 12.4583C2.97917 17.6935 7.22314 21.9375 12.4583 21.9375C17.6935 21.9375 21.9375 17.6935 21.9375 12.4583C21.9375 7.22313 17.6935 2.97916 12.4583 2.97916ZM1.35417 12.4583C1.35417 6.32567 6.32568 1.35416 12.4583 1.35416C18.591 1.35416 23.5625 6.32567 23.5625 12.4583C23.5625 15.2322 22.5454 17.7686 20.8638 19.7147L24.4079 23.2588C24.7252 23.5761 24.7252 24.0906 24.4079 24.4079C24.0906 24.7252 23.5761 24.7252 23.2588 24.4079L19.7147 20.8638C17.7686 22.5454 15.2322 23.5625 12.4583 23.5625C6.32568 23.5625 1.35417 18.591 1.35417 12.4583Z" fill="#BCBCBC"/>
</svg>
