<svg width="38" height="38" viewBox="0 0 38 38" fill="none" xmlns="http://www.w3.org/2000/svg">
<path d="M15.8928 8.41727L16.9204 10.2586C17.8477 11.9203 17.4755 14.1001 16.0149 15.5607C16.0149 15.5607 14.2432 17.3323 17.4554 20.5445C20.6675 23.7566 22.4392 21.985 22.4392 21.985C23.8998 20.5245 26.0797 20.1522 27.7413 21.0795L29.5826 22.1071C32.0918 23.5075 32.3881 27.0263 30.1826 29.2318C28.8574 30.5571 27.2339 31.5882 25.4392 31.6563C22.418 31.7708 17.2872 31.0062 12.1404 25.8595C6.9937 20.7127 6.22909 15.5819 6.34363 12.5607C6.41166 10.766 7.44286 9.14253 8.76811 7.81728C10.9736 5.61177 14.4924 5.9081 15.8928 8.41727Z" fill="white"/>
<path d="M20.9943 2.97679C21.0991 2.32938 21.7111 1.8902 22.3585 1.99501C22.3986 2.00268 22.5275 2.02678 22.5951 2.04183C22.7302 2.07192 22.9186 2.11824 23.1536 2.18668C23.6235 2.32355 24.28 2.54903 25.0679 2.91024C26.6453 3.63344 28.7445 4.89853 30.9229 7.07688C33.1012 9.25523 34.3663 11.3544 35.0895 12.9319C35.4507 13.7198 35.6762 14.3762 35.8131 14.8461C35.8815 15.0811 35.9278 15.2696 35.9579 15.4047C35.973 15.4722 35.9839 15.5265 35.9916 15.5665L36.0007 15.6159C36.1055 16.2633 35.6704 16.9007 35.023 17.0055C34.3774 17.11 33.7692 16.6729 33.6618 16.0286C33.6585 16.0113 33.6495 15.9648 33.6397 15.9209C33.6202 15.8332 33.5864 15.6942 33.5328 15.5103C33.4257 15.1424 33.2396 14.5956 32.9306 13.9217C32.3133 12.5753 31.2034 10.7162 29.2435 8.75626C27.2835 6.79631 25.4244 5.6864 24.0781 5.06917C23.4041 4.76017 22.8573 4.57408 22.4895 4.46693C22.3055 4.41336 22.0744 4.3603 21.9867 4.34077C21.3423 4.23339 20.8898 3.62235 20.9943 2.97679Z" fill="white"/>
<path fill-rule="evenodd" clip-rule="evenodd" d="M21.3525 8.43844C21.5327 7.80784 22.1899 7.44269 22.8205 7.62286L22.4943 8.76467C22.8205 7.62286 22.8205 7.62286 22.8205 7.62286L22.8228 7.62352L22.8252 7.62422L22.8305 7.62576L22.8428 7.62942L22.8741 7.63918C22.898 7.64682 22.9278 7.65676 22.9634 7.66937C23.0345 7.69461 23.1285 7.73049 23.2437 7.7799C23.4744 7.87875 23.7896 8.03142 24.1767 8.26054C24.9517 8.71921 26.0097 9.48107 27.2525 10.7239C28.4954 11.9668 29.2573 13.0248 29.7159 13.7998C29.9451 14.1869 30.0977 14.5021 30.1966 14.7328C30.246 14.848 30.2819 14.942 30.3071 15.0131C30.3197 15.0487 30.3297 15.0785 30.3373 15.1024L30.3471 15.1337L30.3507 15.146L30.3523 15.1512L30.353 15.1537C30.353 15.1537 30.3536 15.156 29.2118 15.4822L30.3536 15.156C30.5338 15.7866 30.1687 16.4438 29.5381 16.624C28.9128 16.8026 28.2613 16.4452 28.0747 15.8244L28.0689 15.8074C28.0604 15.7836 28.0429 15.7367 28.0136 15.6683C27.955 15.5316 27.8488 15.308 27.6721 15.0094C27.319 14.4129 26.6814 13.5116 25.5732 12.4033C24.4649 11.2951 23.5636 10.6574 22.9671 10.3044C22.6685 10.1277 22.4449 10.0215 22.3082 9.96287C22.2398 9.93355 22.1929 9.91608 22.1691 9.90764L22.1521 9.90179C21.5313 9.71515 21.1739 9.06369 21.3525 8.43844Z" fill="white"/>
</svg>
