<svg width="28" height="28" viewBox="0 0 28 28" fill="none" xmlns="http://www.w3.org/2000/svg">
<path d="M11.7105 6.20219L12.4677 7.55894C13.151 8.78334 12.8767 10.3895 11.8005 11.4658C11.8005 11.4658 10.4951 12.7712 12.8619 15.1381C15.2287 17.5049 16.5342 16.1995 16.5342 16.1995C17.6104 15.1233 19.2166 14.849 20.441 15.5323L21.7978 16.2895C23.6466 17.3213 23.865 19.9141 22.2399 21.5392C21.2634 22.5157 20.0671 23.2755 18.7447 23.3257C16.5186 23.4101 12.738 22.8467 8.94564 19.0543C5.15331 15.262 4.58991 11.4814 4.6743 9.25526C4.72443 7.93286 5.48426 6.7366 6.46076 5.76009C8.08587 4.13499 10.6787 4.35333 11.7105 6.20219Z" fill="#582FE6"/>
<path d="M15.4694 2.19342C15.5466 1.71638 15.9976 1.39278 16.4746 1.47001C16.5042 1.47566 16.5992 1.49342 16.649 1.50451C16.7485 1.52668 16.8874 1.56081 17.0605 1.61124C17.4068 1.71209 17.8905 1.87823 18.471 2.14439C19.6333 2.67727 21.1801 3.60944 22.7852 5.21454C24.3903 6.81964 25.3225 8.36642 25.8554 9.52875C26.1215 10.1093 26.2877 10.593 26.3885 10.9392C26.4389 11.1124 26.4731 11.2513 26.4953 11.3508C26.5063 11.4006 26.5144 11.4406 26.5201 11.4701L26.5268 11.5065C26.604 11.9835 26.2834 12.4531 25.8063 12.5303C25.3307 12.6074 24.8825 12.2853 24.8034 11.8105C24.801 11.7978 24.7943 11.7635 24.7871 11.7312C24.7727 11.6666 24.7478 11.5641 24.7083 11.4286C24.6294 11.1576 24.4923 10.7547 24.2646 10.2581C23.8098 9.26604 22.992 7.89615 21.5478 6.45198C20.1036 5.00781 18.7337 4.18998 17.7417 3.73518C17.2451 3.50749 16.8422 3.37037 16.5711 3.29142C16.4356 3.25195 16.2653 3.21285 16.2007 3.19846C15.7259 3.11934 15.3924 2.6691 15.4694 2.19342Z" fill="#582FE6"/>
<path fill-rule="evenodd" clip-rule="evenodd" d="M15.7334 6.2178C15.8661 5.75314 16.3504 5.48409 16.8151 5.61684L16.5747 6.45818C16.8151 5.61685 16.8151 5.61684 16.8151 5.61684L16.8168 5.61733L16.8186 5.61784L16.8224 5.61898L16.8315 5.62168L16.8546 5.62887C16.8722 5.6345 16.8941 5.64182 16.9203 5.65112C16.9727 5.66971 17.042 5.69615 17.1269 5.73255C17.2969 5.8054 17.5291 5.91789 17.8144 6.08672C18.3854 6.42468 19.165 6.98605 20.0808 7.90185C20.9966 8.81765 21.5579 9.59721 21.8959 10.1682C22.0647 10.4535 22.1772 10.6858 22.2501 10.8557C22.2865 10.9407 22.3129 11.0099 22.3315 11.0623C22.3408 11.0885 22.3481 11.1105 22.3538 11.1281L22.3609 11.1511L22.3636 11.1602L22.3648 11.1641L22.3653 11.1659C22.3653 11.1659 22.3658 11.1675 21.5244 11.4079L22.3658 11.1675C22.4985 11.6322 22.2295 12.1165 21.7648 12.2493C21.3041 12.3809 20.8241 12.1175 20.6866 11.6601L20.6823 11.6475C20.676 11.63 20.6632 11.5955 20.6416 11.5451C20.5984 11.4444 20.5201 11.2796 20.3899 11.0596C20.1298 10.62 19.6599 9.9559 18.8433 9.13929C18.0267 8.32268 17.3626 7.85286 16.9231 7.59273C16.703 7.46251 16.5383 7.38423 16.4376 7.34106C16.3871 7.31946 16.3526 7.30659 16.3351 7.30036L16.3225 7.29605C15.8651 7.15853 15.6017 6.67851 15.7334 6.2178Z" fill="#582FE6"/>
</svg>
