<svg width="34" height="32" viewBox="0 0 34 32" fill="currentColor"
    xmlns="http://www.w3.org/2000/svg">
    <path
        d="M30.756 19.721L31.0841 16.6905C31.2592 15.0736 31.3748 14.0059 31.2841 13.3332L31.3158 13.3333C32.7982 13.3333 34 12.1394 34 10.6667C34 9.19391 32.7982 8 31.3158 8C29.8333 8 28.6316 9.19391 28.6316 10.6667C28.6316 11.3327 28.8774 11.9418 29.2838 12.4091C28.7004 12.7669 27.9375 13.5218 26.7893 14.658L26.7893 14.658L26.7893 14.6581C25.9047 15.5334 25.4625 15.9711 24.9691 16.0389C24.6957 16.0764 24.4171 16.0378 24.1647 15.9274C23.7091 15.7281 23.4053 15.187 22.7978 14.1048L19.5955 8.40071C19.2208 7.73311 18.9071 7.17435 18.6243 6.72471C19.7845 6.13666 20.5789 4.93828 20.5789 3.55556C20.5789 1.59188 18.9766 0 17 0C15.0234 0 13.4211 1.59188 13.4211 3.55556C13.4211 4.93828 14.2155 6.13666 15.3758 6.72471C15.0929 7.17438 14.7793 7.73305 14.4045 8.40071L11.2022 14.1048C10.5947 15.187 10.2909 15.7281 9.83532 15.9274C9.58288 16.0378 9.30432 16.0764 9.03093 16.0389C8.53753 15.9711 8.09524 15.5334 7.21068 14.658C6.0625 13.5218 5.29963 12.7669 4.71621 12.4091C5.12262 11.9418 5.36842 11.3327 5.36842 10.6667C5.36842 9.19391 4.16666 8 2.68421 8C1.20176 8 0 9.19391 0 10.6667C0 12.1394 1.20176 13.3333 2.68421 13.3333L2.71591 13.3332C2.62519 14.0059 2.74079 15.0736 2.91585 16.6905L3.24396 19.721C3.42609 21.4032 3.57754 23.0038 3.76304 24.4444H30.237C30.4225 23.0038 30.5739 21.4032 30.756 19.721Z"
        fill="currentColor" />
    <path
        d="M15.0532 32H18.9468C24.0217 32 26.5591 32 28.2521 30.4945C28.991 29.8374 29.4589 28.6528 29.7966 27.1111H4.2034C4.54106 28.6528 5.00897 29.8374 5.74792 30.4945C7.44093 32 9.97834 32 15.0532 32Z"
        fill="currentColor" />
</svg>