<svg width="28" height="28" viewBox="0 0 28 28" fill="none" xmlns="http://www.w3.org/2000/svg">
<path fill-rule="evenodd" clip-rule="evenodd" d="M21.2916 8.16664C21.2916 10.5829 19.3329 12.5416 16.9166 12.5416C14.5004 12.5416 12.5416 10.5829 12.5416 8.16664C12.5416 5.75039 14.5004 3.79164 16.9166 3.79164C19.3329 3.79164 21.2916 5.7504 21.2916 8.16664ZM16.9166 10.7916C18.3664 10.7916 19.5416 9.61639 19.5416 8.16664C19.5416 6.71689 18.3664 5.54164 16.9166 5.54164C15.4669 5.54164 14.2916 6.71689 14.2916 8.16664C14.2916 9.61639 15.4669 10.7916 16.9166 10.7916Z" fill="#BCBCBC"/>
<path fill-rule="evenodd" clip-rule="evenodd" d="M6.70831 19.8333C6.70831 22.2496 8.66707 24.2083 11.0833 24.2083C13.4996 24.2083 15.4583 22.2496 15.4583 19.8333C15.4583 17.4171 13.4996 15.4583 11.0833 15.4583C8.66707 15.4583 6.70831 17.4171 6.70831 19.8333ZM11.0833 22.4583C9.63357 22.4583 8.45831 21.2831 8.45831 19.8333C8.45831 18.3836 9.63357 17.2083 11.0833 17.2083C12.5331 17.2083 13.7083 18.3836 13.7083 19.8333C13.7083 21.2831 12.5331 22.4583 11.0833 22.4583Z" fill="#BCBCBC"/>
<path d="M16.625 19.7849C16.625 19.3017 17.0167 18.9099 17.5 18.9099H25.6666C26.1499 18.9099 26.5416 19.3017 26.5416 19.7849C26.5416 20.2682 26.1499 20.6599 25.6666 20.6599H17.5C17.0167 20.6599 16.625 20.2682 16.625 19.7849Z" fill="#BCBCBC"/>
<path d="M10.5 7.24325C10.9832 7.24325 11.375 7.635 11.375 8.11825C11.375 8.6015 10.9832 8.99325 10.5 8.99325L2.33331 8.99325C1.85006 8.99325 1.45831 8.6015 1.45831 8.11825C1.45831 7.635 1.85006 7.24325 2.33331 7.24325L10.5 7.24325Z" fill="#BCBCBC"/>
<path d="M1.45831 19.7849C1.45831 19.3017 1.85006 18.9099 2.33331 18.9099H4.66665C5.1499 18.9099 5.54165 19.3017 5.54165 19.7849C5.54165 20.2682 5.1499 20.6599 4.66665 20.6599H2.33331C1.85006 20.6599 1.45831 20.2682 1.45831 19.7849Z" fill="#BCBCBC"/>
<path d="M25.6666 7.24325C26.1499 7.24325 26.5416 7.635 26.5416 8.11825C26.5416 8.6015 26.1499 8.99325 25.6666 8.99325H23.3333C22.8501 8.99325 22.4583 8.6015 22.4583 8.11825C22.4583 7.635 22.8501 7.24325 23.3333 7.24325H25.6666Z" fill="#BCBCBC"/>
</svg>
