<svg width="12" height="16" viewBox="0 0 12 16" fill="none" xmlns="http://www.w3.org/2000/svg">
<path d="M5.05276 14.2717V3.84715L1.66305 7.87738C1.31994 8.2851 0.720869 8.3284 0.325918 7.97418C-0.068941 7.61988 -0.110861 7.00126 0.23217 6.59341L5.28466 0.586277L5.35621 0.511124C5.53043 0.344318 5.76003 0.250002 6.0001 0.25C6.27441 0.250022 6.53564 0.37246 6.71554 0.586277L11.768 6.59341L11.8272 6.67238C12.1042 7.07764 12.0446 7.64191 11.6743 7.97418C11.304 8.30631 10.7549 8.28824 10.405 7.94871L10.3372 7.87738L6.94745 3.84715V14.2717C6.94718 14.8118 6.52311 15.25 6.0001 15.25C5.47707 15.25 5.05303 14.8118 5.05276 14.2717Z" fill="currentColor"/>
</svg>
