<svg width="32" height="32" viewBox="0 0 32 32" fill="currentColor" xmlns="http://www.w3.org/2000/svg">
    <path fill-rule="evenodd" clip-rule="evenodd"
        d="M29.3333 16C29.3333 23.3638 23.3638 29.3334 16 29.3334C8.6362 29.3334 2.66666 23.3638 2.66666 16C2.66666 8.63622 8.6362 2.66669 16 2.66669C23.3638 2.66669 29.3333 8.63622 29.3333 16ZM20 12C20 14.2092 18.2091 16 16 16C13.7909 16 12 14.2092 12 12C12 9.79088 13.7909 8.00002 16 8.00002C18.2091 8.00002 20 9.79088 20 12ZM16 27.3334C18.3787 27.3334 20.5863 26.6005 22.4092 25.3483C23.2144 24.7952 23.5585 23.7417 23.0903 22.8843C22.1199 21.107 20.1203 20 15.9999 20C11.8796 20 9.87995 21.107 8.90952 22.8842C8.44139 23.7416 8.78547 24.7951 9.59061 25.3482C11.4136 26.6005 13.6212 27.3334 16 27.3334Z"
        fill="currentColor" />
</svg>