<svg width="32" height="32" viewBox="0 0 32 32" fill="none" xmlns="http://www.w3.org/2000/svg">
<path d="M20.6666 9.99998C20.6666 12.5773 18.5773 14.6666 16 14.6666C13.4227 14.6666 11.3333 12.5773 11.3333 9.99998C11.3333 7.42265 13.4227 5.33331 16 5.33331C18.5773 5.33331 20.6666 7.42265 20.6666 9.99998Z" fill="#582FE6"/>
<path d="M24 22C24 24.5773 20.4183 26.6666 16 26.6666C11.5817 26.6666 8 24.5773 8 22C8 19.4227 11.5817 17.3333 16 17.3333C20.4183 17.3333 24 19.4227 24 22Z" fill="#582FE6"/>
<path d="M9.49608 6.66669C9.7327 6.66669 9.9637 6.6899 10.1868 6.7341C9.64334 7.6993 9.33335 8.81346 9.33335 10C9.33335 11.1577 9.62843 12.2464 10.1475 13.1952C9.93662 13.2345 9.71884 13.255 9.49608 13.255C7.6102 13.255 6.08139 11.7802 6.08139 9.96086C6.08139 8.14154 7.6102 6.66669 9.49608 6.66669Z" fill="#582FE6"/>
<path d="M7.26314 25.3146C6.50591 24.4095 6.00002 23.2987 6.00002 22C6.00002 20.741 6.47545 19.6587 7.19439 18.769C4.65482 18.966 2.66669 20.355 2.66669 22.0392C2.66669 23.7392 4.68976 25.1385 7.26314 25.3146Z" fill="#582FE6"/>
<path d="M22.6666 10C22.6666 11.1577 22.3715 12.2464 21.8524 13.1952C22.0633 13.2345 22.2811 13.255 22.5038 13.255C24.3897 13.255 25.9185 11.7802 25.9185 9.96086C25.9185 8.14154 24.3897 6.66669 22.5038 6.66669C22.2672 6.66669 22.0362 6.6899 21.8132 6.7341C22.3566 7.6993 22.6666 8.81346 22.6666 10Z" fill="#582FE6"/>
<path d="M24.7368 25.3146C27.3102 25.1385 29.3332 23.7392 29.3332 22.0392C29.3332 20.355 27.3451 18.966 24.8055 18.769C25.5245 19.6587 25.9999 20.741 25.9999 22C25.9999 23.2987 25.494 24.4095 24.7368 25.3146Z" fill="#582FE6"/>
</svg>
