<svg width="35" height="35" viewBox="0 0 35 35" fill="currentColor"
    xmlns="http://www.w3.org/2000/svg">
    <path
        d="M2.91663 9.05702C2.91663 6.16243 2.91663 4.71514 3.87768 3.81591C4.83874 2.91667 6.38553 2.91667 9.47913 2.91667C12.5727 2.91667 14.1195 2.91667 15.0806 3.81591C16.0416 4.71514 16.0416 6.16243 16.0416 9.05702V25.943C16.0416 28.8376 16.0416 30.2849 15.0806 31.1841C14.1195 32.0833 12.5727 32.0833 9.47913 32.0833C6.38553 32.0833 4.83874 32.0833 3.87768 31.1841C2.91663 30.2849 2.91663 28.8376 2.91663 25.943V9.05702Z"
        fill="currentColor" />
    <path
        d="M18.9584 22.4583C18.9584 19.4335 18.9584 17.9211 19.9194 16.9814C20.8805 16.0417 22.4273 16.0417 25.5209 16.0417C28.6145 16.0417 30.1613 16.0417 31.1223 16.9814C32.0834 17.9211 32.0834 19.4335 32.0834 22.4583V25.6667C32.0834 28.6915 32.0834 30.2039 31.1223 31.1436C30.1613 32.0833 28.6145 32.0833 25.5209 32.0833C22.4273 32.0833 20.8805 32.0833 19.9194 31.1436C18.9584 30.2039 18.9584 28.6915 18.9584 25.6667V22.4583Z"
        fill="currentColor" />
    <path
        d="M18.9584 8.02084C18.9584 6.43534 18.9584 5.64259 19.2081 5.01726C19.5412 4.18349 20.1799 3.52105 20.9839 3.17569C21.5869 2.91667 22.3514 2.91667 23.8802 2.91667H27.1615C28.6904 2.91667 29.4548 2.91667 30.0578 3.17569C30.8618 3.52105 31.5006 4.18349 31.8336 5.01726C32.0834 5.64259 32.0834 6.43534 32.0834 8.02084C32.0834 9.60633 32.0834 10.3991 31.8336 11.0244C31.5006 11.8582 30.8618 12.5206 30.0578 12.866C29.4548 13.125 28.6904 13.125 27.1615 13.125H23.8802C22.3514 13.125 21.5869 13.125 20.9839 12.866C20.1799 12.5206 19.5412 11.8582 19.2081 11.0244C18.9584 10.3991 18.9584 9.60633 18.9584 8.02084Z"
        fill="currentColor" />
</svg>