<svg width="105" height="97" viewBox="0 0 105 97" fill="none" xmlns="http://www.w3.org/2000/svg">
<path d="M10.0691 57.5911L11.1456 49.8764C11.1456 49.8764 14.1718 50.1677 15.6309 49.1588C16.8775 48.2967 17.7838 45.9294 17.7838 45.9294L11.5044 45.7499C11.5044 45.7499 11.1827 42.9881 11.8632 41.4441C12.5629 39.8567 14.9132 38.2147 14.9132 38.2147L17.425 29.2441L14.5544 28.8852C14.5544 28.8852 16.4683 26.5963 18.1426 25.8352C22.0897 24.0412 29.625 24.2205 29.625 24.2205C29.625 24.2205 28.6754 26.9787 28.9073 31.0382C29.2661 37.3176 38.775 45.75 38.775 45.75C38.775 45.75 33.7514 38.9323 32.1367 34.6264C30.522 30.3206 30.8809 26.5529 32.1367 23.8618C33.3926 21.1706 36.4047 18.3626 40.0309 17.0441C43.9779 15.6088 52.5897 15.9676 52.5897 15.9676L42.0044 50.7735C42.0044 50.7735 50.236 50.998 55.4603 50.4147C60.7861 49.82 73.0426 45.9294 73.0426 45.9294C73.0426 45.9294 63.5338 49.5176 62.9956 53.4647C62.776 55.0749 63.5338 57.5911 63.5338 57.5911H38.775C38.775 57.5911 40.2103 47.7235 30.522 47.7235C20.998 47.7235 21.9103 57.5911 21.9103 57.5911H10.0691Z" fill="#5A32EA"/>
<path d="M46.1309 47.1853L48.4632 39.1118C48.4632 39.1118 59.382 37.7701 66.0456 34.9853C75.4248 31.0655 87.7544 19.7353 87.7544 19.7353C87.7544 19.7353 77.7826 35.1343 68.0191 40.7265C60.2855 45.156 46.1309 47.1853 46.1309 47.1853Z" fill="#5A32EA"/>
<path d="M52.2309 26.9118L49.5397 36.0617C49.5397 36.0617 65.2422 33.0468 74.8367 27.45C89.9073 18.6588 94.9309 0 94.9309 0C94.9309 0 82.3032 15.8592 71.0691 21.35C64.1775 24.7183 52.2309 26.9118 52.2309 26.9118Z" fill="#5A32EA"/>
<path d="M68.0191 20.2735C62.6252 22.6199 53.3073 23.5029 53.3073 23.5029L55.4603 15.4294C55.4603 15.4294 64.2477 14.5269 69.6338 12.9176C75.9731 11.0236 85.0632 5.92059 85.0632 5.92059C85.0632 5.92059 75.9986 16.8023 68.0191 20.2735Z" fill="#5A32EA"/>
<path d="M24.0338 38.3941L16.528 38.2182L18.7456 30.4775C18.7456 30.4775 19.1669 29.7215 19.5985 29.4219C20.2165 28.9931 21.475 29.0701 21.475 29.0701L26.9338 29.246L24.0338 38.3941Z" fill="white"/>
<ellipse cx="30.5221" cy="55.2588" rx="5.74118" ry="5.74118" fill="#5A32EA"/>
<ellipse cx="71.4279" cy="55.2588" rx="5.74118" ry="5.74118" fill="#5A32EA"/>
<path d="M5.28125 78.7891V76H18.4219V78.7891H13.5234V92H10.1797V78.7891H5.28125ZM19.7173 92V80H22.9439V82.0937H23.0689C23.2877 81.349 23.6548 80.7865 24.1705 80.4062C24.6861 80.0208 25.2798 79.8281 25.9517 79.8281C26.1184 79.8281 26.2981 79.8385 26.4908 79.8594C26.6835 79.8802 26.8528 79.9088 26.9986 79.9453V82.8984C26.8423 82.8516 26.6262 82.8099 26.3502 82.7734C26.0741 82.737 25.8215 82.7187 25.5923 82.7187C25.1028 82.7187 24.6653 82.8255 24.2798 83.0391C23.8996 83.2474 23.5976 83.5391 23.3736 83.9141C23.1548 84.2891 23.0455 84.7213 23.0455 85.2109V92H19.7173ZM32.2374 92.2266C31.4718 92.2266 30.7895 92.0937 30.1905 91.8281C29.5916 91.5573 29.1176 91.1588 28.7687 90.6328C28.4249 90.1016 28.253 89.4401 28.253 88.6484C28.253 87.9818 28.3754 87.4219 28.6202 86.9687C28.865 86.5156 29.1984 86.151 29.6202 85.875C30.0421 85.599 30.5213 85.3906 31.0577 85.25C31.5994 85.1094 32.1671 85.0104 32.7609 84.9531C33.4588 84.8802 34.0213 84.8125 34.4484 84.75C34.8754 84.6823 35.1853 84.5833 35.378 84.4531C35.5708 84.3229 35.6671 84.1302 35.6671 83.875V83.8281C35.6671 83.3333 35.5109 82.9505 35.1984 82.6797C34.8911 82.4088 34.4536 82.2734 33.8859 82.2734C33.2869 82.2734 32.8103 82.4062 32.4562 82.6719C32.102 82.9323 31.8676 83.2604 31.753 83.6562L28.6749 83.4062C28.8312 82.6771 29.1385 82.0469 29.5968 81.5156C30.0551 80.9792 30.6463 80.5677 31.3702 80.2812C32.0994 79.9896 32.9432 79.8437 33.9015 79.8437C34.5682 79.8437 35.2062 79.9219 35.8155 80.0781C36.4301 80.2344 36.9744 80.4766 37.4484 80.8047C37.9275 81.1328 38.3051 81.5547 38.5812 82.0703C38.8572 82.5807 38.9952 83.1927 38.9952 83.9062V92H35.839V90.3359H35.7452C35.5525 90.7109 35.2947 91.0417 34.9718 91.3281C34.6489 91.6094 34.2609 91.8307 33.8077 91.9922C33.3546 92.1484 32.8312 92.2266 32.2374 92.2266ZM33.1905 89.9297C33.6801 89.9297 34.1124 89.8333 34.4874 89.6406C34.8624 89.4427 35.1567 89.1771 35.3702 88.8437C35.5838 88.5104 35.6905 88.1328 35.6905 87.7109V86.4375C35.5864 86.5052 35.4432 86.5677 35.2609 86.625C35.0838 86.6771 34.8833 86.7266 34.6593 86.7734C34.4353 86.8151 34.2114 86.8542 33.9874 86.8906C33.7635 86.9219 33.5603 86.9505 33.378 86.9766C32.9874 87.0338 32.6463 87.125 32.3546 87.25C32.0629 87.375 31.8364 87.5443 31.6749 87.7578C31.5135 87.9661 31.4327 88.2266 31.4327 88.5391C31.4327 88.9922 31.5968 89.3385 31.9249 89.5781C32.2583 89.8125 32.6801 89.9297 33.1905 89.9297ZM47.4391 92.2344C46.21 92.2344 45.1527 91.974 44.2673 91.4531C43.3871 90.9271 42.71 90.1979 42.236 89.2656C41.7673 88.3333 41.5329 87.2604 41.5329 86.0469C41.5329 84.8177 41.7699 83.7396 42.2438 82.8125C42.723 81.8802 43.4027 81.1536 44.2829 80.6328C45.1631 80.1068 46.21 79.8437 47.4235 79.8437C48.4704 79.8437 49.3871 80.0338 50.1735 80.4141C50.96 80.7943 51.5824 81.3281 52.0407 82.0156C52.499 82.7031 52.7516 83.5104 52.7985 84.4375H49.6579C49.5693 83.8385 49.335 83.3568 48.9548 82.9922C48.5798 82.6224 48.0876 82.4375 47.4782 82.4375C46.9626 82.4375 46.5121 82.5781 46.1266 82.8594C45.7464 83.1354 45.4496 83.5391 45.236 84.0703C45.0225 84.6016 44.9157 85.2448 44.9157 86C44.9157 86.7656 45.0199 87.4167 45.2282 87.9531C45.4417 88.4896 45.7412 88.8984 46.1266 89.1797C46.5121 89.4609 46.9626 89.6016 47.4782 89.6016C47.8584 89.6016 48.1996 89.5234 48.5016 89.3672C48.8089 89.2109 49.0615 88.9844 49.2595 88.6875C49.4626 88.3854 49.5954 88.0234 49.6579 87.6016H52.7985C52.7464 88.5182 52.4964 89.3255 52.0485 90.0234C51.6058 90.7161 50.9938 91.2578 50.2126 91.6484C49.4313 92.0391 48.5068 92.2344 47.4391 92.2344ZM58.385 88.5469L58.3928 84.5547H58.8772L62.7209 80H66.5412L61.3772 86.0312H60.5881L58.385 88.5469ZM55.3694 92V76H58.6975V92H55.3694ZM62.8694 92L59.3381 86.7734L61.5569 84.4219L66.7678 92H62.8694Z" fill="#582FE6"/>
<path d="M68.8563 92V80H71.1922V92H68.8563ZM70.0359 78.1484C69.6297 78.1484 69.2807 78.013 68.9891 77.7422C68.7026 77.4661 68.5594 77.138 68.5594 76.7578C68.5594 76.3724 68.7026 76.0443 68.9891 75.7734C69.2807 75.4974 69.6297 75.3594 70.0359 75.3594C70.4422 75.3594 70.7885 75.4974 71.075 75.7734C71.3667 76.0443 71.5125 76.3724 71.5125 76.7578C71.5125 77.138 71.3667 77.4661 71.075 77.7422C70.7885 78.013 70.4422 78.1484 70.0359 78.1484ZM77.1107 84.875V92H74.7748V80H77.017V81.9531H77.1654C77.4414 81.3177 77.8737 80.8073 78.4623 80.4219C79.056 80.0365 79.8034 79.8437 80.7045 79.8437C81.5222 79.8437 82.2383 80.0156 82.8529 80.3594C83.4675 80.6979 83.944 81.2031 84.2826 81.875C84.6211 82.5469 84.7904 83.3776 84.7904 84.3672V92H82.4545V84.6484C82.4545 83.7786 82.2279 83.099 81.7748 82.6094C81.3216 82.1146 80.6992 81.8672 79.9076 81.8672C79.3659 81.8672 78.8841 81.9844 78.4623 82.2187C78.0456 82.4531 77.7149 82.7969 77.4701 83.25C77.2305 83.6979 77.1107 84.2396 77.1107 84.875ZM93.3945 96.75C92.4413 96.75 91.621 96.625 90.9335 96.375C90.2512 96.125 89.6939 95.7943 89.2616 95.3828C88.8294 94.9713 88.5064 94.5208 88.2929 94.0312L90.3007 93.2031C90.4413 93.4323 90.6288 93.6745 90.8632 93.9297C91.1028 94.1901 91.4257 94.4115 91.832 94.5937C92.2434 94.776 92.7721 94.8672 93.4179 94.8672C94.3033 94.8672 95.0351 94.651 95.6132 94.2187C96.1913 93.7917 96.4804 93.1094 96.4804 92.1719V89.8125H96.332C96.1913 90.0677 95.9882 90.3516 95.7226 90.6641C95.4622 90.9766 95.1028 91.2474 94.6445 91.4766C94.1861 91.7057 93.5898 91.8203 92.8554 91.8203C91.9075 91.8203 91.0533 91.599 90.2929 91.1562C89.5377 90.7083 88.9387 90.0495 88.496 89.1797C88.0585 88.3047 87.8398 87.2292 87.8398 85.9531C87.8398 84.6771 88.0559 83.5833 88.4882 82.6719C88.9257 81.7604 89.5247 81.0625 90.2851 80.5781C91.0455 80.0885 91.9075 79.8437 92.871 79.8437C93.6158 79.8437 94.2174 79.9687 94.6757 80.2187C95.134 80.4635 95.4908 80.75 95.746 81.0781C96.0064 81.4062 96.207 81.6953 96.3476 81.9453H96.5195V80H98.8085V92.2656C98.8085 93.2969 98.5689 94.1432 98.0898 94.8047C97.6106 95.4661 96.9622 95.9557 96.1445 96.2734C95.332 96.5911 94.4153 96.75 93.3945 96.75ZM93.371 89.8828C94.0429 89.8828 94.6106 89.7266 95.0741 89.4141C95.5429 89.0963 95.8971 88.6432 96.1366 88.0547C96.3814 87.4609 96.5038 86.75 96.5038 85.9219C96.5038 85.1146 96.384 84.4036 96.1445 83.7891C95.9049 83.1745 95.5533 82.6953 95.0898 82.3516C94.6262 82.0026 94.0533 81.8281 93.371 81.8281C92.6679 81.8281 92.082 82.0104 91.6132 82.375C91.1445 82.7344 90.7903 83.224 90.5507 83.8437C90.3163 84.4635 90.1991 85.1562 90.1991 85.9219C90.1991 86.7083 90.3189 87.3984 90.5585 87.9922C90.7981 88.5859 91.1523 89.0495 91.621 89.3828C92.095 89.7161 92.6783 89.8828 93.371 89.8828Z" fill="black"/>
</svg>
