<svg width="32" height="32" viewBox="0 0 32 32" fill="currentColor"
    xmlns="http://www.w3.org/2000/svg">
    <path fill-rule="evenodd" clip-rule="evenodd"
        d="M24.6667 18.6667C22.0893 18.6667 20 20.6111 20 23.0097C20 25.3896 21.4894 28.1666 23.8133 29.1597C24.355 29.3912 24.9783 29.3912 25.52 29.1597C27.8439 28.1666 29.3333 25.3896 29.3333 23.0097C29.3333 20.6111 27.244 18.6667 24.6667 18.6667ZM24.6667 24.6667C25.403 24.6667 26 24.0697 26 23.3333C26 22.5969 25.403 22 24.6667 22C23.9303 22 23.3333 22.5969 23.3333 23.3333C23.3333 24.0697 23.9303 24.6667 24.6667 24.6667Z"
        fill="currentColor" />
    <path fill-rule="evenodd" clip-rule="evenodd"
        d="M7.33333 2.66666C4.756 2.66666 2.66666 4.61112 2.66666 7.00975C2.66666 9.38957 4.1561 12.1666 6.47995 13.1597C7.02168 13.3912 7.64498 13.3912 8.18671 13.1597C10.5106 12.1666 12 9.38957 12 7.00975C12 4.61112 9.91066 2.66666 7.33333 2.66666ZM7.33333 8.66666C8.06971 8.66666 8.66666 8.0697 8.66666 7.33332C8.66666 6.59694 8.06971 5.99999 7.33333 5.99999C6.59695 5.99999 6 6.59694 6 7.33332C6 8.0697 6.59695 8.66666 7.33333 8.66666Z"
        fill="currentColor" />
    <path fill-rule="evenodd" clip-rule="evenodd"
        d="M15 6.66666C15 6.11437 15.4477 5.66666 16 5.66666H21.5092C25.1775 5.66666 26.5725 10.4573 23.4777 12.4267L9.59604 21.2605C8.1893 22.1557 8.82342 24.3333 10.4908 24.3333H13.5858L13.2929 24.0404C12.9024 23.6499 12.9024 23.0167 13.2929 22.6262C13.6834 22.2357 14.3166 22.2357 14.7071 22.6262L16.7071 24.6262C17.0976 25.0167 17.0976 25.6499 16.7071 26.0404L14.7071 28.0404C14.3166 28.431 13.6834 28.431 13.2929 28.0404C12.9024 27.6499 12.9024 27.0167 13.2929 26.6262L13.5858 26.3333H10.4908C6.82251 26.3333 5.42749 21.5426 8.52229 19.5732L22.404 10.7394C23.8107 9.84423 23.1766 7.66666 21.5092 7.66666H16C15.4477 7.66666 15 7.21894 15 6.66666Z"
        fill="currentColor" />
</svg>