<svg width="32" height="32" viewBox="0 0 32 32" fill="currentColor"
    xmlns="http://www.w3.org/2000/svg">
    <path
        d="M21.3333 20.3334C22.2538 20.3334 23 19.5872 23 18.6667C23 17.7462 22.2538 17 21.3333 17C20.4129 17 19.6667 17.7462 19.6667 18.6667C19.6667 19.5872 20.4129 20.3334 21.3333 20.3334Z"
        fill="currentColor" />
    <path
        d="M12.3333 13.3334C12.3333 12.4129 11.5871 11.6667 10.6667 11.6667C9.74619 11.6667 9 12.4129 9 13.3334C9 14.2538 9.74619 15 10.6667 15C11.5871 15 12.3333 14.2538 12.3333 13.3334Z"
        fill="currentColor" />
    <path fill-rule="evenodd" clip-rule="evenodd"
        d="M16 29.3334C9.7146 29.3334 6.57191 29.3334 4.61929 27.3807C2.66666 25.4281 2.66666 22.2854 2.66666 16C2.66666 9.71463 2.66666 6.57193 4.61928 4.61931C6.57191 2.66669 9.7146 2.66669 16 2.66669C22.2854 2.66669 25.4281 2.66669 27.3807 4.61931C29.3333 6.57193 29.3333 9.71463 29.3333 16C29.3333 22.2854 29.3333 25.4281 27.3807 27.3807C25.4281 29.3334 22.2854 29.3334 16 29.3334ZM25 18.6667C25 20.6917 23.3584 22.3334 21.3333 22.3334C19.3083 22.3334 17.6667 20.6917 17.6667 18.6667C17.6667 16.6416 19.3083 15 21.3333 15C23.3584 15 25 16.6416 25 18.6667ZM10.6667 9.66669C12.6917 9.66669 14.3333 11.3083 14.3333 13.3334C14.3333 15.3584 12.6917 17 10.6667 17C8.64162 17 7 15.3584 7 13.3334C7 11.3083 8.64162 9.66669 10.6667 9.66669ZM21.3333 14.3334C20.781 14.3334 20.3333 13.8856 20.3333 13.3334V6.66669C20.3333 6.1144 20.781 5.66669 21.3333 5.66669C21.8856 5.66669 22.3333 6.1144 22.3333 6.66669V13.3334C22.3333 13.8856 21.8856 14.3334 21.3333 14.3334ZM9.66666 18.6667C9.66666 18.1144 10.1144 17.6667 10.6667 17.6667C11.2189 17.6667 11.6667 18.1144 11.6667 18.6667L11.6667 25.3334C11.6667 25.8856 11.219 26.3334 10.6667 26.3334C10.1144 26.3334 9.66667 25.8856 9.66667 25.3334L9.66666 18.6667ZM21.3333 26.3334C20.781 26.3334 20.3333 25.8856 20.3333 25.3334V24C20.3333 23.4477 20.781 23 21.3333 23C21.8856 23 22.3333 23.4477 22.3333 24V25.3334C22.3333 25.8856 21.8856 26.3334 21.3333 26.3334ZM9.66666 6.66669C9.66666 6.1144 10.1144 5.66669 10.6667 5.66669C11.2189 5.66669 11.6667 6.1144 11.6667 6.66669V8.00002C11.6667 8.55231 11.2189 9.00002 10.6667 9.00002C10.1144 9.00002 9.66666 8.55231 9.66666 8.00002V6.66669Z"
        fill="currentColor" />
</svg>