<svg width="32" height="32" viewBox="0 0 32 32" fill="currentColor"
    xmlns="http://www.w3.org/2000/svg">
    <path fill-rule="evenodd" clip-rule="evenodd"
        d="M28.1345 10.6714C28.059 10.6666 27.9767 10.6666 27.8914 10.6667L27.8701 10.6667H24.5255C21.7686 10.6667 19.4096 12.8368 19.4096 15.6667C19.4096 18.4966 21.7686 20.6667 24.5255 20.6667H27.8701L27.8914 20.6667C27.9767 20.6667 28.059 20.6667 28.1345 20.662C29.2544 20.5913 30.2447 19.7149 30.328 18.491C30.3334 18.4107 30.3334 18.3242 30.3333 18.244L30.3333 18.2222V13.1111L30.3333 13.0894C30.3334 13.0092 30.3334 12.9227 30.328 12.8424C30.2447 11.6184 29.2544 10.7421 28.1345 10.6714ZM24.2289 17C24.9387 17 25.514 16.403 25.514 15.6667C25.514 14.9303 24.9387 14.3333 24.2289 14.3333C23.5191 14.3333 22.9438 14.9303 22.9438 15.6667C22.9438 16.403 23.5191 17 24.2289 17Z"
        fill="currentColor" />
    <path fill-rule="evenodd" clip-rule="evenodd"
        d="M27.8906 22.6667C28.0894 22.6615 28.2398 22.8457 28.1859 23.0371C27.9182 23.987 27.4934 24.7966 26.8117 25.4783C25.8139 26.4762 24.5486 26.919 22.9854 27.1292C21.4664 27.3334 19.5256 27.3334 17.0752 27.3333H14.2581C11.8078 27.3334 9.86692 27.3334 8.34797 27.1292C6.78474 26.919 5.51947 26.4762 4.52166 25.4783C3.52384 24.4805 3.08102 23.2153 2.87084 21.652C2.66663 20.1331 2.66664 18.1922 2.66666 15.7419V15.5914C2.66664 13.1411 2.66663 11.2003 2.87084 9.6813C3.08101 8.11807 3.52384 6.85281 4.52165 5.85499C5.51947 4.85717 6.78474 4.41435 8.34797 4.20418C9.86692 3.99996 11.8078 3.99998 14.2581 4L17.0752 4C19.5256 3.99998 21.4664 3.99996 22.9854 4.20418C24.5486 4.41435 25.8139 4.85717 26.8117 5.85499C27.4934 6.5367 27.9182 7.34632 28.1859 8.29624C28.2398 8.48767 28.0893 8.67183 27.8905 8.66667L24.5254 8.66668C20.7432 8.66668 17.4095 11.6545 17.4095 15.6667C17.4095 19.6788 20.7432 22.6667 24.5254 22.6667L27.8906 22.6667ZM9.33333 20.6667C8.78105 20.6667 8.33333 20.219 8.33333 19.6667V11.6667C8.33333 11.1144 8.78105 10.6667 9.33333 10.6667C9.88562 10.6667 10.3333 11.1144 10.3333 11.6667V19.6667C10.3333 20.219 9.88562 20.6667 9.33333 20.6667Z"
        fill="currentColor" />
</svg>